<mxfile host="app.diagrams.net" modified="2023-04-11T03:29:40.384Z" agent="Mozilla/5.0 (Macintosh; Intel Mac OS X 10_15_7) AppleWebKit/537.36 (KHTML, like Gecko) Chrome/111.0.0.0 Safari/537.36" etag="f44jNOdYPl4RKbD-0kH3" version="21.1.5" type="github">
  <diagram name="第 1 页" id="uhQZtpUgYcrYQWrQA_Oc">
    <mxGraphModel dx="568" dy="375" grid="1" gridSize="10" guides="1" tooltips="1" connect="1" arrows="1" fold="1" page="1" pageScale="1" pageWidth="827" pageHeight="1169" math="0" shadow="0">
      <root>
        <mxCell id="0" />
        <mxCell id="1" parent="0" />
        <mxCell id="H_6Ncwb9t_UI7tgGM6-s-1" value="10:00" style="text;html=1;strokeColor=none;fillColor=none;align=center;verticalAlign=middle;whiteSpace=wrap;rounded=0;" vertex="1" parent="1">
          <mxGeometry x="270" y="160" width="60" height="30" as="geometry" />
        </mxCell>
        <mxCell id="H_6Ncwb9t_UI7tgGM6-s-2" value="10:15" style="text;html=1;strokeColor=none;fillColor=none;align=center;verticalAlign=middle;whiteSpace=wrap;rounded=0;" vertex="1" parent="1">
          <mxGeometry x="270" y="200" width="60" height="30" as="geometry" />
        </mxCell>
        <mxCell id="H_6Ncwb9t_UI7tgGM6-s-3" value="10:45" style="text;html=1;strokeColor=none;fillColor=none;align=center;verticalAlign=middle;whiteSpace=wrap;rounded=0;" vertex="1" parent="1">
          <mxGeometry x="270" y="280" width="60" height="30" as="geometry" />
        </mxCell>
        <mxCell id="H_6Ncwb9t_UI7tgGM6-s-4" value="10:30" style="text;html=1;strokeColor=none;fillColor=none;align=center;verticalAlign=middle;whiteSpace=wrap;rounded=0;" vertex="1" parent="1">
          <mxGeometry x="270" y="240" width="60" height="30" as="geometry" />
        </mxCell>
        <mxCell id="H_6Ncwb9t_UI7tgGM6-s-5" value="第一次更新" style="text;html=1;strokeColor=none;fillColor=none;align=center;verticalAlign=middle;whiteSpace=wrap;rounded=0;" vertex="1" parent="1">
          <mxGeometry x="354" y="160" width="76" height="30" as="geometry" />
        </mxCell>
        <mxCell id="H_6Ncwb9t_UI7tgGM6-s-6" value="9:50" style="text;html=1;strokeColor=none;fillColor=none;align=center;verticalAlign=middle;whiteSpace=wrap;rounded=0;" vertex="1" parent="1">
          <mxGeometry x="270" y="120" width="60" height="30" as="geometry" />
        </mxCell>
        <mxCell id="H_6Ncwb9t_UI7tgGM6-s-7" value="任务1、2开始执行" style="text;html=1;strokeColor=none;fillColor=none;align=center;verticalAlign=middle;whiteSpace=wrap;rounded=0;" vertex="1" parent="1">
          <mxGeometry x="354" y="121" width="116" height="30" as="geometry" />
        </mxCell>
        <mxCell id="H_6Ncwb9t_UI7tgGM6-s-8" value="任务1执行" style="text;html=1;strokeColor=none;fillColor=none;align=center;verticalAlign=middle;whiteSpace=wrap;rounded=0;" vertex="1" parent="1">
          <mxGeometry x="354" y="200" width="73" height="30" as="geometry" />
        </mxCell>
        <mxCell id="H_6Ncwb9t_UI7tgGM6-s-9" value="第二次更新" style="text;html=1;strokeColor=none;fillColor=none;align=center;verticalAlign=middle;whiteSpace=wrap;rounded=0;" vertex="1" parent="1">
          <mxGeometry x="354" y="240" width="76" height="30" as="geometry" />
        </mxCell>
        <mxCell id="H_6Ncwb9t_UI7tgGM6-s-12" value="任务2未执行" style="text;html=1;strokeColor=none;fillColor=none;align=center;verticalAlign=middle;whiteSpace=wrap;rounded=0;" vertex="1" parent="1">
          <mxGeometry x="354" y="280" width="86" height="30" as="geometry" />
        </mxCell>
        <mxCell id="H_6Ncwb9t_UI7tgGM6-s-13" value="任务1:next = 9:50 + 60s" style="text;html=1;strokeColor=none;fillColor=none;align=center;verticalAlign=middle;whiteSpace=wrap;rounded=0;" vertex="1" parent="1">
          <mxGeometry x="240" y="330" width="270" height="30" as="geometry" />
        </mxCell>
      </root>
    </mxGraphModel>
  </diagram>
</mxfile>
